<svg id="Layer_1" data-name="Layer 1" xmlns="http://www.w3.org/2000/svg" viewBox="0 0 166.1 182.25"><defs><style>.cls-1{fill:none;stroke:#fff;stroke-linecap:round;stroke-miterlimit:10;stroke-width:18px;}</style></defs><path class="cls-1" d="M192.83,124.89,122.44,55.64a45.23,45.23,0,0,0-26.3-12.92A43.56,43.56,0,0,0,61.29,53.84C46.64,67.51,43.57,90.22,53.62,108a44.8,44.8,0,0,0,7.53,9.65l79.78,79.08a33.54,33.54,0,0,0,23.14,10A31.55,31.55,0,0,0,185.25,199,32.18,32.18,0,0,0,195.73,172a34.07,34.07,0,0,0-10.43-21.34L106,73.81A20.2,20.2,0,0,0,90.31,68a18.51,18.51,0,0,0-10,3.86C74.55,76.44,72,84.4,73.8,92a19.94,19.94,0,0,0,5.55,9.61l67.09,65.95" transform="translate(-38.76 -33.4)"/></svg>